<svg xmlns="http://www.w3.org/2000/svg" xmlns:xlink="http://www.w3.org/1999/xlink" fill="none" version="1.1" width="24" height="24" viewBox="0 0 24 24"><g><g><path d="M11.02496,12.97496C11.02496,12.97496,11.02496,18.75,11.02496,18.75C11.02496,18.75,12.97496,18.75,12.97496,18.75C12.97496,18.75,12.97496,12.97496,12.97496,12.97496C12.97496,12.97496,18.75,12.97496,18.75,12.97496C18.75,12.97496,18.75,11.02496,18.75,11.02496C18.75,11.02496,12.97496,11.02496,12.97496,11.02496C12.97496,11.02496,12.97496,5.25,12.97496,5.25C12.97496,5.25,11.02496,5.25,11.02496,5.25C11.02496,5.25,11.02496,11.02496,11.02496,11.02496C11.02496,11.02496,5.25,11.02496,5.25,11.02496C5.25,11.02496,5.25,12.97496,5.25,12.97496C5.25,12.97496,11.02496,12.97496,11.02496,12.97496Z" fill="#000000" fill-opacity="0.8999999761581421"/></g></g></svg>