<svg xmlns="http://www.w3.org/2000/svg" xmlns:xlink="http://www.w3.org/1999/xlink" fill="none" version="1.1" width="30" height="30" viewBox="0 0 30 30"><defs><clipPath id="master_svg0_1099_202674"><rect x="0" y="0" width="30" height="30" rx="0"/></clipPath></defs><g clip-path="url(#master_svg0_1099_202674)"><g><path d="M5,25.93755C4.75,25.93755,4.5,25.87495,4.3125,25.68755C3.9375001,25.31255,3.9375001,24.74995,4.3125,24.37495L24.06245,4.625C24.43755,4.2500001,25.00005,4.2500001,25.37505,4.625C25.74995,5,25.74995,5.5625,25.37505,5.9375L5.6875,25.68755C5.5,25.87495,5.25,25.93755,5,25.93755ZM24.75005,25.93755C24.50005,25.93755,24.25005,25.87495,24.06245,25.68755L4.3125,5.9375C3.9999996,5.5625,3.9999996,5,4.3125,4.625C4.625,4.2500001,5.25,4.2500001,5.625,4.625L25.37505,24.37495C25.75005,24.74995,25.75005,25.31255,25.37505,25.68755C25.18745,25.87495,24.93745,25.93755,24.75005,25.93755Z" fill="#606266" fill-opacity="1"/></g></g></svg>