<svg xmlns="http://www.w3.org/2000/svg" xmlns:xlink="http://www.w3.org/1999/xlink" fill="none" version="1.1" width="17.142578125" height="17.142578125" viewBox="0 0 17.142578125 17.142578125"><g><g><path d="M14.99995707473755,3.2142885373687746L11.249997074737548,3.2142885373687746L11.249997074737548,1.9285715373687744C11.249997074737548,1.4551845373687744,10.866247074737549,1.0714285373687744,10.392857074737549,1.0714285373687744L6.749997074737549,1.0714285373687744C6.2766170747375485,1.0714285373687744,5.892857074737549,1.4551855373687745,5.892857074737549,1.9285725373687743L5.892857074737549,3.2142885373687746L2.142857074737549,3.2142885373687746L2.142857074737549,4.2857185373687745L3.214287074737549,4.2857185373687745L3.214287074737549,15.000028537368774C3.214287074737549,15.591728537368775,3.693977074737549,16.071428537368774,4.2857170747375495,16.071428537368774L12.857157074737549,16.071428537368774C13.448857074737548,16.071428537368774,13.92855707473755,15.591728537368775,13.92855707473755,15.000028537368774L13.92855707473755,4.2857185373687745L14.99995707473755,4.2857185373687745L14.99995707473755,3.2142885373687746ZM10.178567074737549,3.2142885373687746L6.964287074737549,3.2142885373687746L6.964287074737549,2.1428585373687747L10.178567074737549,2.1428585373687747L10.178567074737549,3.2142885373687746ZM4.2857170747375495,15.000028537368774L4.2857170747375495,4.2857185373687745L12.857157074737549,4.2857185373687745L12.857157074737549,15.000028537368774L4.2857170747375495,15.000028537368774ZM6.428567074737549,6.428568537368775L6.428567074737549,12.857128537368775L7.499997074737549,12.857128537368775L7.499997074737549,6.428568537368775L6.428567074737549,6.428568537368775ZM9.642857074737549,12.857128537368775L9.642857074737549,6.428568537368775L10.714287074737548,6.428568537368775L10.714287074737548,12.857128537368775L9.642857074737549,12.857128537368775Z" fill-rule="evenodd" fill="#000000" fill-opacity="0.8999999761581421"/></g></g></svg>