<svg xmlns="http://www.w3.org/2000/svg" xmlns:xlink="http://www.w3.org/1999/xlink" fill="none" version="1.1" width="16" height="16" viewBox="0 0 16 16"><defs><clipPath id="master_svg0_1099_202370"><rect x="0" y="0" width="16" height="16" rx="0"/></clipPath></defs><g clip-path="url(#master_svg0_1099_202370)"><g><path d="M13.000021728515625,5.32801371875C13.000021728515625,5.32801371875,8.000021728515625,10.20301171875,8.000021728515625,10.20301171875C8.000021728515625,10.20301171875,3.000021728515625,5.32801371875,3.000021728515625,5.32801371875C2.906354728515625,5.23434711875,2.797021728515625,5.18751368775,2.672021728515625,5.18751368775C2.547021728515625,5.18751368775,2.437688728515625,5.23434711875,2.344021728515625,5.32801371875C2.250355128515625,5.42168071875,2.203521728515625,5.53101371875,2.203521728515625,5.65601371875C2.203521728515625,5.78101371875,2.245188428515625,5.88518071875,2.328521728515625,5.96851371875C2.328521728515625,5.96851371875,7.656521728515625,11.156011718750001,7.656521728515625,11.156011718750001C7.750191728515625,11.24968171875,7.864851728515625,11.29651171875,8.000521728515626,11.29651171875C8.136191728515625,11.29651171875,8.250851728515624,11.24968171875,8.344521728515625,11.156011718750001C8.344521728515625,11.156011718750001,13.672521728515624,5.98401371875,13.672521728515624,5.98401371875C13.755821728515626,5.89034671875,13.797521728515624,5.77834671875,13.797521728515624,5.64801371875C13.797521728515624,5.51767971875,13.750721728515625,5.40834671875,13.657021728515625,5.32001371875C13.563321728515625,5.23168051875,13.454021728515626,5.18734681875,13.329021728515626,5.18701348553C13.204021728515626,5.18668015175,13.094721728515625,5.23351351875,13.001021728515624,5.32751371875C13.001021728515624,5.32751371875,13.000021728515625,5.32801371875,13.000021728515625,5.32801371875C13.000021728515625,5.32801371875,13.000021728515625,5.32801371875,13.000021728515625,5.32801371875Z" fill="#606266" fill-opacity="1"/></g></g></svg>