<svg xmlns="http://www.w3.org/2000/svg" xmlns:xlink="http://www.w3.org/1999/xlink" fill="none" version="1.1" width="24" height="24" viewBox="0 0 24 24"><defs><clipPath id="master_svg0_1099_202455"><rect x="0" y="0" width="24" height="24" rx="0"/></clipPath></defs><g clip-path="url(#master_svg0_1099_202455)"><g><path d="M9,2.25L4.5,2.25C3.2573600000000003,2.25,2.25,3.2573600000000003,2.25,4.5L2.25,9C2.25,10.24264,3.2573600000000003,11.25,4.5,11.25L9,11.25C10.24264,11.25,11.25,10.24264,11.25,9L11.25,4.5C11.25,3.2573600000000003,10.24264,2.25,9,2.25ZM9.75,9C9.75,9.41421,9.41421,9.75,9,9.75L4.5,9.75C4.08579,9.75,3.75,9.41421,3.75,9L3.75,4.5C3.75,4.08579,4.08579,3.75,4.5,3.75L9,3.75C9.41421,3.75,9.75,4.08579,9.75,4.5L9.75,9ZM9,12.75L4.5,12.75C3.2573600000000003,12.75,2.25,13.7574,2.25,15L2.25,19.5C2.25,20.7426,3.2573600000000003,21.75,4.5,21.75L9,21.75C10.24264,21.75,11.25,20.7426,11.25,19.5L11.25,15C11.25,13.7574,10.24264,12.75,9,12.75ZM9.75,19.5C9.75,19.9142,9.41421,20.25,9,20.25L4.5,20.25C4.08579,20.25,3.75,19.9142,3.75,19.5L3.75,15C3.75,14.5858,4.08579,14.25,4.5,14.25L9,14.25C9.41421,14.25,9.75,14.5858,9.75,15L9.75,19.5ZM19.5,12.75L15,12.75C13.7574,12.75,12.75,13.7574,12.75,15L12.75,19.5C12.75,20.7426,13.7574,21.75,15,21.75L19.5,21.75C20.7426,21.75,21.75,20.7426,21.75,19.5L21.75,15C21.75,13.7574,20.7426,12.75,19.5,12.75ZM20.25,19.5C20.25,19.9142,19.9142,20.25,19.5,20.25L15,20.25C14.5858,20.25,14.25,19.9142,14.25,19.5L14.25,15C14.25,14.5858,14.5858,14.25,15,14.25L19.5,14.25C19.9142,14.25,20.25,14.5858,20.25,15L20.25,19.5ZM12.75,6.75C12.75,9.23528,14.7647,11.25,17.25,11.25C19.7353,11.25,21.75,9.23528,21.75,6.75C21.75,4.2647200000000005,19.7353,2.25,17.25,2.25C14.7647,2.25,12.75,4.2647200000000005,12.75,6.75Z" fill="#606266" fill-opacity="1"/></g></g></svg>