<svg xmlns="http://www.w3.org/2000/svg" xmlns:xlink="http://www.w3.org/1999/xlink" fill="none" version="1.1" width="24" height="24" viewBox="0 0 24 24"><defs><clipPath id="master_svg0_1099_202459"><rect x="0" y="0" width="24" height="24" rx="0"/></clipPath></defs><g clip-path="url(#master_svg0_1099_202459)"><g><path d="M19.222,6.72348C19.3373,6.60345,19.467,6.46803,19.5512,6.3134C20.1821,5.49643,20.2574,4.2598199999999995,19.7281,3.36236C19.1948,2.458375,18.4043,2,17.378700000000002,2L4.68604,2C4.44008,2,4.18591,2,3.9645900000000003,2.0728037C3.42265,2.209534,2.9268520000000002,2.543626,2.56753,3.01445C2.2015190000000002,3.4938000000000002,2,4.08639,2,4.68296C2,5.4571000000000005,2.282811,6.14318,2.796622,6.61574C4.428710000000001,8.259699999999999,6.05817,9.95867,7.63488,11.60339L7.63488,17.0317L7.6376,17.0774C7.7233,17.792099999999998,8.243839999999999,18.1826,8.87391,17.9003L8.884879999999999,17.8949C9.22577,17.7172,9.421199999999999,17.359299999999998,9.421199999999999,16.913L9.421199999999999,11.33233C9.421199999999999,10.95564,9.309899999999999,10.64845,9.09028,10.41938C8.30272,9.59779,7.52674,8.744019999999999,6.77644,7.91824C6.00287,7.06688,5.2029,6.18656,4.36679,5.31445L4.3258399999999995,5.2712900000000005L4.276479999999999,5.2459C4.2648600000000005,5.23757,4.23919,5.20265,4.21971,5.17598C4.19833,5.14708,4.177490000000001,5.11974,4.1556,5.0948C4.01122,4.90185,3.9807699999999997,4.73787,4.04818,4.5166C4.16538,4.23994,4.40039,3.9224300000000003,4.68593,3.9224300000000003L17.4925,3.9224300000000003C17.648400000000002,3.9224300000000003,17.7987,4.0102899999999995,17.9157,4.16997C18.0674,4.3772199999999994,18.1239,4.65123,18.0614,4.89044C18.0296,5.0227699999999995,17.9767,5.08272,17.8167,5.24988C16.0533,7.0298,14.3688,8.786629999999999,12.5856,10.6466L12.5761,10.6566C12.3954,10.84483,12.1881,11.11884,12.1881,11.56966L12.1881,20.9502C12.1881,21.0655,12.1881,21.3905,12.4158,21.6506Q12.485,21.8134,12.7832,21.9317Q13.1517,22.0778,13.5117,21.9114L13.6057,21.838C13.9744,21.5494,13.9744,21.0999,13.9744,20.8313L13.9744,11.95963C14.8562,11.04208,15.7699,10.14954,16.6541,9.28589C17.5546,8.406659999999999,18.4049,7.57594,19.222,6.72348ZM21.1922,18.7419L16.354100000000003,18.7419C15.8486,18.7419,15.5465,19.1703,15.5465,19.5846L15.5465,19.8222C15.5465,20.3496,15.957,20.6647,16.354100000000003,20.6647L21.1922,20.6647C21.6979,20.6647,22,20.2364,22,19.8222L22,19.5845C22,19.0806,21.6754,18.7419,21.1922,18.7419ZM21.1922,15.7143L16.354100000000003,15.7143C15.8486,15.7143,15.5465,16.142699999999998,15.5465,16.5569L15.5465,16.7348C15.5465,17.2624,15.957,17.5775,16.354100000000003,17.5775L21.1922,17.5775C21.6979,17.5775,22,17.1491,22,16.7348L22,16.5569C22,16.142699999999998,21.698,15.7143,21.1922,15.7143ZM21.1922,12.8052L16.354100000000003,12.8052C15.8486,12.8052,15.5465,13.2336,15.5465,13.6478L15.5465,13.7666C15.5465,14.2938,15.957,14.609,16.354100000000003,14.609L21.1922,14.609C21.6979,14.609,22,14.1807,22,13.7666L22,13.6478C22,13.1438,21.6754,12.8052,21.1922,12.8052Z" fill="#606266" fill-opacity="1" style="mix-blend-mode:passthrough"/></g></g></svg>