<svg xmlns="http://www.w3.org/2000/svg" xmlns:xlink="http://www.w3.org/1999/xlink" fill="none" version="1.1" width="24" height="24" viewBox="0 0 24 24"><defs><clipPath id="master_svg0_1108_015879"><rect x="0" y="0" width="24" height="24" rx="0"/></clipPath></defs><g clip-path="url(#master_svg0_1108_015879)"><g><path d="M6.75,9L6.75,7.25C6.75,4.35025,9.1,2,12,2C14.9,2,17.25,4.349,17.25,7.25L17.25,9L17.5002,9C19.0182,9,20.25,10.23275,20.25,11.75L20.25,19.25C20.25,20.7693,19.020200000000003,22,17.5002,22L6.5,22C4.98175,22,3.75,20.7672,3.75,19.25L3.75,11.75C3.75,10.23075,4.97975,9,6.499750000000001,9L6.75,9ZM8.25,9L15.75,9L15.75,7.25C15.75,5.1775,14.0717,3.5,12,3.5C9.9285,3.5,8.25,5.17875,8.25,7.25L8.25,9ZM5.25,11.75L5.25,19.25C5.25,19.939,5.8105,20.5,6.499750000000001,20.5L17.5,20.5C18.1907,20.5008,18.750799999999998,19.9407,18.75,19.25L18.75,11.75C18.75,11.061,18.189500000000002,10.5,17.5002,10.5L6.5,10.5C5.8093,10.49917,5.2491699999999994,11.0593,5.25,11.75Z" fill="#000000" fill-opacity="1"/></g></g></svg>