<svg xmlns="http://www.w3.org/2000/svg" xmlns:xlink="http://www.w3.org/1999/xlink" fill="none" version="1.1" width="24" height="24" viewBox="0 0 24 24"><defs><clipPath id="master_svg0_1108_015877"><rect x="0" y="0" width="24" height="24" rx="0"/></clipPath></defs><g clip-path="url(#master_svg0_1108_015877)"><g><path d="M17.727337304687502,21.27164375L6.8182373046875,21.27164375C6.0653673046875,21.27104375,5.4552073046875,20.66084375,5.4545973046875,19.90804375L5.4545973046875,17.60074375L19.0909373046875,17.60074375L19.0909373046875,19.90804375C19.0909373046875,20.66024375,18.4795373046875,21.27164375,17.727337304687502,21.27164375ZM6.8182373046875,2.72620375L17.727337304687502,2.72620375C18.4795373046875,2.72620375,19.0909373046875,3.33766375,19.0909373046875,4.08984375L19.0909373046875,15.96434375L5.4545973046875,15.96434375L5.4545973046875,4.08984375C5.4545973046875,3.33766375,6.0660573046875,2.72620375,6.8182373046875,2.72620375ZM17.727337304687502,1.08984375L6.8182373046875,1.08984375C5.1622573046875,1.09194723,3.8203408746875,2.43386375,3.8182373046875,4.08984375L3.8182373046875,19.90804375C3.8182373046875,21.56184375,5.1644173046875,22.90804375,6.8182373046875,22.90804375L17.727337304687502,22.90804375C19.3811373046875,22.90804375,20.7273373046875,21.56184375,20.7273373046875,19.90804375L20.7273373046875,4.08984375C20.7273373046875,2.43602375,19.3811373046875,1.089843928814,17.727337304687502,1.08984375ZM12.2727873046875,18.27164375C11.6695473046875,18.27094375,11.180217304687499,18.75984375,11.1803673046875,19.36314375C11.1805173046875,19.96634375,11.6700973046875,20.45504375,12.2733273046875,20.45404375C12.8753873046875,20.45304375,13.3628773046875,19.96464375,13.3627273046875,19.36254375C13.3625773046875,18.76054375,12.8748373046875,18.27234375,12.2727873046875,18.27164375Z" fill="#000000" fill-opacity="1"/></g></g></svg>