<svg xmlns="http://www.w3.org/2000/svg" xmlns:xlink="http://www.w3.org/1999/xlink" fill="none" version="1.1" width="20" height="20" viewBox="0 0 20 20"><defs><clipPath id="master_svg0_1099_202450"><rect x="0" y="0" width="20" height="20" rx="0"/></clipPath></defs><g clip-path="url(#master_svg0_1099_202450)"><g><path d="M10,17.3940625C9.482233,17.3940625,9.0625,16.974362499999998,9.0625,16.4565625L9.0625,3.5390625C9.0625,3.0212955,9.482233,2.6015625,10,2.6015625C10.51777,2.6015625,10.9375,3.0212955,10.9375,3.5390625L10.9375,16.4565625C10.9375,16.974362499999998,10.51777,17.3940625,10,17.3940625Z" fill="#FFFFFF" fill-opacity="1"/></g><g><path d="M16.46046875,10.9375L3.54296875,10.9375C3.02520175,10.9375,2.60546875,10.51777,2.60546875,10C2.60546875,9.482233,3.02520175,9.0625,3.54296875,9.0625L16.46046875,9.0625C16.978268749999998,9.0625,17.39796875,9.482233,17.39796875,10C17.39796875,10.51777,16.978268749999998,10.9375,16.46046875,10.9375Z" fill="#FFFFFF" fill-opacity="1"/></g></g></svg>