<svg xmlns="http://www.w3.org/2000/svg" xmlns:xlink="http://www.w3.org/1999/xlink" fill="none" version="1.1" width="24" height="24" viewBox="0 0 24 24"><defs><clipPath id="master_svg0_1099_202457"><rect x="0" y="0" width="24" height="24" rx="0"/></clipPath></defs><g clip-path="url(#master_svg0_1099_202457)"><g><path d="M16.398937500000002,18.1984375C15.0989375,18.9984375,13.5989375,19.4984375,12.0989375,19.4984375C7.6989075,19.4984375,4.1989175,16.0984375,4.1989175,11.7984475C4.1989175,10.6984275,4.3989075,9.6984475,4.8989275,8.6984375L4.9989075,9.3984475C5.098917500000001,9.798427499999999,5.5989075,9.998447500000001,5.9989175,9.8984375C6.3989275,9.798427499999999,6.5989175,9.2984375,6.4989075,8.8984275L5.5989075,6.1984275C5.4989275,5.7984475,4.9989075,5.5984275,4.5989275,5.6984375L1.7989165,6.6984475C1.3989095,6.7984275,1.198917,7.2984475,1.2989247,7.6984275C1.3989095,8.0984375,1.8989245000000001,8.298427499999999,2.2989075000000003,8.1984475L3.3989275,7.8984475C2.7989275,9.198427500000001,2.3989175,10.4984375,2.3989175,11.9984375C2.3989175,17.1984375,6.6989275,21.3984375,11.9989375,21.3984375C13.8989375,21.3984375,15.6989375,20.8984375,17.2989375,19.8984375C17.6989375,19.5984375,17.7989375,19.0984375,17.5989375,18.6984375C17.2989375,18.0984375,16.7989375,17.8984375,16.398937500000002,18.1984375ZM22.3989375,16.2984375C22.1989375,15.8984375,21.7989375,15.6984375,21.3989375,15.8984375L20.4989375,16.2984375C21.2989375,14.8984375,21.6989375,13.3984375,21.6989375,11.7984475C21.6989375,6.5984375,17.3989375,2.398438215256,12.0989375,2.398438215256C10.0989075,2.398438215256,8.2989075,2.9984385,6.6989275,3.9984475C6.2989175,4.2984475,6.1989075,4.7984375,6.3989275,5.1984475C6.6989275,5.5984275,7.1989175,5.6984375,7.5989275,5.3984375C8.8989075,4.5984475,10.3989075,4.0984275,11.9989375,4.0984275C16.398937500000002,4.0984275,19.8989375,7.4984375,19.8989375,11.7984475C19.8989375,13.0984375,19.5989375,14.2984375,18.9989375,15.3984375Q18.9989375,15.4984375,18.8989375,15.4984375L18.5989375,14.6984375C18.3989375,14.2984375,17.9989375,14.0984375,17.5989375,14.2984375C17.1989375,14.4984375,16.9989375,14.8984375,17.1989375,15.2984375L18.2989375,17.9984375C18.4989375,18.3984375,18.8989375,18.5984375,19.2989375,18.3984375L21.9989375,17.2984375C22.3989375,17.0984375,22.5989375,16.6984375,22.3989375,16.2984375Z" fill="#606266" fill-opacity="1"/></g></g></svg>