<svg xmlns="http://www.w3.org/2000/svg" xmlns:xlink="http://www.w3.org/1999/xlink" fill="none" version="1.1" width="20.000001907348633" height="20" viewBox="0 0 20.000001907348633 20"><defs><clipPath id="master_svg0_1099_202672"><rect x="0" y="0" width="20.000001907348633" height="20" rx="0"/></clipPath></defs><g clip-path="url(#master_svg0_1099_202672)"><g><path d="M16.03857421875,0.8134765625L3.60888421875,0.8134765625C2.92724621875,0.8486327625,2.38037111875,1.3994145625,2.35107421875,2.0830065625L2.35107421875,18.5478765625C2.35107421875,18.5615765625,2.35107421875,18.5732765625,2.35302731875,18.5868765625C2.35302731875,18.5927765625,2.35302731875,18.5986765625,2.35498040875,18.6064765625C2.35498040875,18.6122765625,2.35498040875,18.6200765625,2.35693350875,18.6259765625C2.35693350875,18.6337765625,2.35888659875,18.6415765625,2.35888659875,18.6493765625C2.35888659875,18.6552765625,2.36083969875,18.6591765625,2.36083969875,18.6650765625C2.36279281875,18.6728765625,2.36279281875,18.6825765625,2.36474591875,18.6904765625C2.36474591875,18.6943765625,2.36669901875,18.6982765625,2.36669901875,18.7040765625C2.36865211875,18.7118765625,2.37060521875,18.7216765625,2.37255841875,18.7294765625C2.37451151875,18.7333765625,2.37451151875,18.7372765625,2.37451151875,18.7411765625L2.38037091875,18.7646765625C2.38232401875,18.7685765625,2.38232401875,18.7743765625,2.38427711875,18.7782765625C2.38623021875,18.7861765625,2.38818331875,18.7939765625,2.39208971875,18.7997765625C2.39404271875,18.8056765625,2.39599581875,18.8095765625,2.39794911875,18.8154765625C2.39990221875,18.8212765625,2.40380851875,18.8290765625,2.40576161875,18.8349765625L2.41162111875,18.8525765625C2.41357421875,18.8583765625,2.41748051875,18.8642765625,2.41943361875,18.8700765625C2.42138671875,18.8759765625,2.42529301875,18.8837765625,2.42724611875,18.8896765625C2.42919921875,18.8935765625,2.43115231875,18.8993765625,2.43505861875,18.9032765625C2.43896481875,18.9111765625,2.44287121875,18.9169765625,2.44482431875,18.9247765625C2.44677741875,18.9286765625,2.44873051875,18.9325765625,2.45263721875,18.9364765625C2.45654321875,18.9443765625,2.46044921875,18.9501765625,2.46435521875,18.9579765625C2.46630821875,18.9618765625,2.46826221875,18.9657765625,2.47216821875,18.9696765625C2.47607421875,18.9775765625,2.48193321875,18.9833765625,2.48584021875,18.9911765625C2.48779321875,18.9950765625,2.49169921875,18.9989765625,2.49365221875,19.0029765625C2.49755821875,19.0107765625,2.50341821875,19.0165765625,2.50927721875,19.0243765625C2.51318321875,19.0282765625,2.51513721875,19.0321765625,2.51904321875,19.0361765625C2.52294921875,19.0419765625,2.52880821875,19.0478765625,2.53271521875,19.0536765625C2.53662121875,19.0595765625,2.54248021875,19.0634765625,2.54638621875,19.0693765625C2.55029321875,19.0732765625,2.55419921875,19.0790765625,2.55810521875,19.0829765625C2.56787121875,19.0927765625,2.57568321875,19.1025765625,2.58544921875,19.1122765625C2.59521421875,19.1220765625,2.60498021875,19.1298765625,2.61474621875,19.1396765625C2.61865221875,19.1435765625,2.62451121875,19.1474765625,2.62841821875,19.1513765625C2.63427721875,19.1552765625,2.63818321875,19.1611765625,2.64404321875,19.1650765625C2.64990221875,19.1708765625,2.65576221875,19.1747765625,2.66162121875,19.1786765625C2.66552721875,19.1825765625,2.66943321875,19.1845765625,2.67334021875,19.1884765625C2.68115221875,19.1943765625,2.68701121875,19.1982765625,2.69482421875,19.2040765625C2.69873021875,19.2060765625,2.70263621875,19.2099765625,2.70654321875,19.2118765625C2.71435521875,19.2157765625,2.72021521875,19.2216765625,2.72802721875,19.2255765625C2.73193421875,19.2275765625,2.73584021875,19.2294765625,2.73974621875,19.2333765625C2.74755921875,19.2372765625,2.75341821875,19.2411765625,2.76123121875,19.2450765625C2.76513721875,19.2470765625,2.76904321875,19.2489765625,2.77295021875,19.2529765625C2.78076221875,19.2568765625,2.78662121875,19.2607765625,2.79443421875,19.2626765625C2.79834021875,19.2646765625,2.80420021875,19.2665765625,2.80810621875,19.2704765625C2.81396521875,19.2743765625,2.82177821875,19.2763765625,2.82763721875,19.2782765625C2.83349721875,19.2802765625,2.83935621875,19.2841765625,2.84521521875,19.2861765625L2.8627932187500003,19.2919765625C2.86865321875,19.2939765625,2.87646521875,19.2978765625,2.88232421875,19.2997765625C2.88818421875,19.3017765625,2.89209021875,19.3036765625,2.89795021875,19.3056765625C2.90576221875,19.3075765625,2.91357521875,19.3114765625,2.91943421875,19.3134765625C2.92334021875,19.3154765625,2.92920021875,19.3154765625,2.93310621875,19.3173765625L2.9565432187500003,19.3232765625C2.96045021875,19.3251765625,2.96435621875,19.3251765625,2.97021521875,19.3271765625C2.97802721875,19.3290765625,2.9877932187500003,19.3310765625,2.99560621875,19.3329765625C2.99951221875,19.3329765625,3.0034182187500003,19.3349765625,3.00927821875,19.3349765625C3.01709021875,19.3368765625,3.02685621875,19.3388765625,3.0346682187500003,19.3388765625C3.04052821875,19.3388765625,3.04443421875,19.3407765625,3.0502932187500003,19.3407765625C3.05810621875,19.3427765625,3.0659182187500003,19.3427765625,3.07373121875,19.3427765625C3.07959021875,19.3427765625,3.08740321875,19.3446765625,3.09326221875,19.3446765625C3.09912121875,19.3446765625,3.10498121875,19.3466765625,3.1127932187500003,19.3466765625C3.12646521875,19.3466765625,3.13818421875,19.3486765625,3.15185621875,19.3486765625C3.16552821875,19.3486765625,3.17919921875,19.3486765625,3.1909182187500003,19.3466765625C3.19677821875,19.3466765625,3.20263721875,19.3466765625,3.21045021875,19.3446765625C3.21630921875,19.3446765625,3.22412121875,19.3446765625,3.22998121875,19.3427765625C3.2377932187500003,19.3427765625,3.24560621875,19.3407765625,3.2534182187500003,19.3407765625C3.25927821875,19.3407765625,3.26318421875,19.3388765625,3.2690432187500003,19.3388765625C3.27685621875,19.3368765625,3.28662121875,19.3368765625,3.29443421875,19.3349765625C3.29834021875,19.3349765625,3.30224621875,19.3329765625,3.30810621875,19.3329765625C3.3159182187500003,19.3310765625,3.32568421875,19.3290765625,3.33349621875,19.3271765625C3.33740321875,19.3251765625,3.34130921875,19.3251765625,3.3471682187500003,19.3232765625L3.37060421875,19.3173765625C3.37451421875,19.3154765625,3.38037421875,19.3154765625,3.38427421875,19.3134765625C3.39209421875,19.3114765625,3.3999042187499997,19.3095765625,3.40576421875,19.3056765625C3.41162421875,19.3036765625,3.41552421875,19.3017765625,3.42138421875,19.2997765625C3.4272442187500003,19.2978765625,3.43506421875,19.2939765625,3.4409142187499997,19.2919765625L3.4584942187500003,19.2861765625C3.46435421875,19.2841765625,3.47021421875,19.2802765625,3.47607421875,19.2782765625C3.48193421875,19.2763765625,3.4897442187500003,19.2724765625,3.49560421875,19.2704765625C3.49951421875,19.2685765625,3.50537421875,19.2665765625,3.50927421875,19.2626765625C3.51709421875,19.2587765625,3.52295421875,19.2548765625,3.53076421875,19.2529765625C3.5346642187499997,19.2509765625,3.53857421875,19.2489765625,3.5424842187500003,19.2450765625C3.55029421875,19.2411765625,3.5561542187499997,19.2372765625,3.56396421875,19.2333765625C3.56787421875,19.2314765625,3.57177421875,19.2294765625,3.57568421875,19.2255765625C3.5834942187500003,19.2216765625,3.59131421875,19.2157765625,3.5971642187499997,19.2118765625C3.60107421875,19.2099765625,3.6049842187500003,19.2060765625,3.60888421875,19.2040765625C3.61670421875,19.2001765625,3.62256421875,19.1943765625,3.63037421875,19.1884765625C3.63427421875,19.1845765625,3.63818421875,19.1825765625,3.64209421875,19.1786765625C3.64795421875,19.1747765625,3.65381421875,19.1689765625,3.66162421875,19.1650765625C3.6674842187500003,19.1611765625,3.67138421875,19.1572765625,3.6772442187500003,19.1513765625C3.6811542187499997,19.1474765625,3.68701421875,19.1435765625,3.69092421875,19.1396765625C3.70068421875,19.1318765625,3.71045421875,19.1220765625,3.71826421875,19.1122765625L9.81201421875,13.0185765625L15.90577421875,19.1122765625C16.063974218749998,19.2704765625,16.27297421875,19.3486765625,16.48197421875,19.3466765625L16.49167421875,19.3466765625C16.93307421875,19.3466765625,17.29247421875,18.9892765625,17.29247421875,18.5458765625L17.29247421875,2.0986365625000003C17.26707421875,1.4091795624999999,16.72217421875,0.8525390625,16.03857421875,0.8134765625Z" fill="#3D3D3D" fill-opacity="1"/></g></g></svg>