<svg xmlns="http://www.w3.org/2000/svg" xmlns:xlink="http://www.w3.org/1999/xlink" fill="none" version="1.1" width="16" height="16" viewBox="0 0 16 16"><g><g><g><g><path d="M15.179257193946839,13.199914387893676C15.179257193946839,13.199914387893676,10.398117193946838,9.728054387893676,10.398117193946838,9.728054387893676C10.796167193946838,9.097204387893676,11.04176719394684,8.385654387893677,11.11599719394684,7.647704387893676C11.190257193946838,6.909764387893677,11.09131719394684,6.164954387893676,10.82662719394684,5.470184387893677C10.769427193946838,5.320434387893677,10.653827193946839,5.199054387893677,10.505197193946838,5.1327543878936766C10.356627193946839,5.0664543878936765,10.187257193946838,5.060654387893677,10.034287193946838,5.116634387893677C9.881317193946838,5.172614387893677,9.757317193946838,5.285784387893677,9.689597193946838,5.431264387893677C9.621887193946838,5.576734387893676,9.61599719394684,5.742584387893677,9.67314719394684,5.892334387893676C9.829547193946839,6.3020043878936765,9.909317193946839,6.735894387893676,9.908687193946838,7.173244387893677C9.912397193946838,7.976444387893677,9.649027193946837,8.758974387893677,9.158287193946839,9.402684387893677C8.66759719394684,10.046344387893676,7.976167193946838,10.516224387893677,7.1886271939468385,10.741204387893676C6.401077193946838,10.966224387893677,5.560127193946839,10.934174387893677,4.7928171939468385,10.649884387893676C4.025507193946838,10.365654387893677,3.3735571939468385,9.844624387893678,2.9354371939468384,9.165544387893677C2.4973171939468384,8.486454387893676,2.2967971939468383,7.686214387893677,2.3642571939468384,6.885724387893677C2.431717193946838,6.085244387893677,2.7634671939468385,5.327994387893677,3.3093471939468384,4.728404387893677C3.8552371939468384,4.1288143878936765,4.585647193946839,3.7194443878936765,5.390177193946839,3.5621543878936768C6.194697193946839,3.404864387893677,7.029657193946838,3.508204387893677,7.768917193946838,3.8565443878936767C7.841887193946838,3.892014387893677,7.921317193946838,3.912934387893677,8.002687193946837,3.918114387893677C8.08399719394684,3.9232943878936766,8.16554719394684,3.9126143878936768,8.242627193946838,3.8866943878936766C8.319657193946838,3.8607743878936764,8.390687193946839,3.8201343878936767,8.451597193946839,3.7671343878936767C8.512517193946838,3.7141243878936767,8.562057193946838,3.649814387893677,8.597367193946837,3.577914387893677C8.632747193946837,3.5060143878936767,8.653137193946838,3.427974387893677,8.657427193946837,3.348304387893677C8.661717193946838,3.268628387893677,8.649717193946838,3.1889203878936767,8.622347193946839,3.1137943878936767C8.594917193946838,3.038663387893677,8.552517193946837,2.9696113878936767,8.49765719394684,2.9106403878936766C8.44274719394684,2.851672387893677,8.376517193946839,2.8039563878936766,8.302627193946838,2.770262387893677C7.479547193946838,2.3819594878936767,6.563357193946838,2.2222372878936767,5.653957193946838,2.3084949878936767C4.744547193946838,2.3947523878936767,3.8767471939468385,2.7236813878936768,3.1451071939468385,3.2594513878936766C2.4134471939468387,3.7952243878936764,1.8459771939468383,4.517284387893676,1.5045441939468382,5.346994387893677C1.1631137939468383,6.176694387893677,1.0608028939468384,7.082224387893676,1.2087360939468383,7.964934387893677C1.3566691939468383,8.847654387893677,1.7492061939468384,9.673654387893677,2.343547193946838,10.353084387893677C2.9378771939468384,11.032454387893678,3.7112771939468385,11.539144387893677,4.579437193946839,11.817884387893677C5.447597193946838,12.096684387893676,6.377247193946839,12.136914387893677,7.267147193946839,11.934114387893677C8.157027193946838,11.731314387893677,8.97296719394684,11.293374387893676,9.626167193946838,10.667944387893677C9.626167193946838,10.667944387893677,14.44585719394684,14.167014387893676,14.44585719394684,14.167014387893676C14.577057193946839,14.262314387893676,14.741457193946838,14.302614387893676,14.903057193946838,14.279214387893676C15.064557193946838,14.255814387893677,15.209957193946838,14.170414387893677,15.307357193946839,14.042014387893676C15.404657193946838,13.913614387893677,15.44585719394684,13.752614387893678,15.421957193946838,13.594414387893677C15.397957193946839,13.436314387893677,15.310857193946838,13.293914387893677,15.179657193946838,13.198614387893677C15.179657193946838,13.198614387893677,15.179257193946839,13.199914387893676,15.179257193946839,13.199914387893676C15.179257193946839,13.199914387893676,15.179257193946839,13.199914387893676,15.179257193946839,13.199914387893676Z" fill="#909399" fill-opacity="1"/></g><g><g><path d="M9.580501873542786,4.800789204483032C9.921764873542786,4.800789204483032,10.198409873542786,4.531911204483032,10.198409873542786,4.200225204483032C10.198409873542786,3.868542204483032,9.921764873542786,3.5996592044830322,9.580501873542786,3.5996592044830322C9.239245873542785,3.5996592044830322,8.962599873542786,3.868542204483032,8.962599873542786,4.200225204483032C8.962599873542786,4.531911204483032,9.239245873542785,4.800789204483032,9.580501873542786,4.800789204483032C9.580501873542786,4.800789204483032,9.580501873542786,4.800789204483032,9.580501873542786,4.800789204483032Z" fill="#909399" fill-opacity="1"/></g></g></g></g></g></svg>