<svg xmlns="http://www.w3.org/2000/svg" xmlns:xlink="http://www.w3.org/1999/xlink" fill="none" version="1.1" width="24" height="24" viewBox="0 0 24 24"><defs><clipPath id="master_svg0_1099_202453"><rect x="0" y="0" width="24" height="24" rx="0"/></clipPath></defs><g clip-path="url(#master_svg0_1099_202453)"><g><path d="M20.967175,12.47578C20.557075,12.47578,20.224175,12.80859,20.224175,13.2188L20.224175,19.1016C20.224175,19.6477,19.778875,20.093,19.232775,20.093L4.774215,20.093C4.228125,20.093,3.7828150000000003,19.6477,3.7828150000000003,19.1016L3.7828150000000003,5.47734C3.7828150000000003,4.93125,4.228125,4.48594,4.774215,4.48594L11.118755,4.48594C11.528905,4.48594,11.861715,4.1531199999999995,11.861715,3.742969C11.861715,3.332812,11.531255,3,11.118745,3L4.774215,3C3.4078150000000003,3,2.296875,4.11094,2.296875,5.47734L2.296875,19.1016C2.296875,20.468,3.4078150000000003,21.5789,4.774215,21.5789L19.232775,21.5789C20.599175,21.5789,21.710175,20.468,21.710175,19.1016L21.710175,13.2188C21.710175,12.80859,21.377375,12.47578,20.967175,12.47578ZM5.932035,16.1461C8.240625,13.9617,10.570315,10.58438,14.690675,10.802340000000001C14.981275,10.81875,15.208575,11.04609,15.208575,11.33906L15.208575,12.76875C15.206275,13.2188,15.728875,13.4695,16.078075,13.1859L21.419575,8.86641C21.684375,8.65313,21.684375,8.24766,21.417175,8.034379999999999L16.101575,3.253125C15.752375,2.9718751,15.208575,3.220313,15.206275,3.6679690000000003L15.206275,5.11641C15.206275,5.38828,15.021075,5.58516,14.753875,5.64609C7.664065,7.26328,5.871095,15.5742,5.932035,16.1461Z" fill="#CFCFCF" fill-opacity="1"/></g></g></svg>