<svg xmlns="http://www.w3.org/2000/svg" xmlns:xlink="http://www.w3.org/1999/xlink" fill="none" version="1.1" width="17.142578125" height="17.142578125" viewBox="0 0 17.142578125 17.142578125"><g><g><path d="M8.576658537368775,13.392729108200074C5.465958537368774,13.392729108200074,2.6372385373687743,11.646289108200072,1.1967245373687745,8.817709108200074L1.0714285373687744,8.571299108200073L1.1967245373687745,8.324889108200074C2.6372385373687743,5.507029108200073,5.465958537368774,3.7498691082000732,8.576658537368775,3.7498691082000732C11.676928537368774,3.7498691082000732,14.505628537368775,5.507029108200073,15.946128537368775,8.324889108200074L16.071428537368774,8.571299108200073L15.946128537368775,8.817709108200074C14.505628537368775,11.646289108200072,11.676928537368774,13.392729108200074,8.576658537368775,13.392729108200074ZM2.2613485373687743,8.571299108200073C3.5556485373687745,10.896279108200073,5.946218537368774,12.321299108200073,8.576658537368775,12.321299108200073C11.196628537368774,12.321299108200073,13.597428537368774,10.896279108200073,14.891928537368774,8.571299108200073C13.587228537368775,6.246319108200073,11.196628537368774,4.821299108200074,8.576658537368775,4.821299108200074C5.946218537368774,4.821299108200074,3.5556485373687745,6.246319108200073,2.2613485373687743,8.571299108200073ZM8.571168537368774,11.656889108200073C10.275358537368774,11.656889108200073,11.656728537368775,10.275419108200072,11.656728537368775,8.571299108200073C11.656728537368775,6.867239108200073,10.275358537368774,5.485779108200074,8.571168537368774,5.485779108200074C6.866978537368775,5.485779108200074,5.485578537368775,6.867239108200073,5.485578537368775,8.571299108200073C5.485578537368775,10.275419108200072,6.866978537368775,11.656889108200073,8.571168537368774,11.656889108200073ZM8.571168537368774,6.557199108200074C9.683398537368774,6.557199108200074,10.585328537368774,7.458929108200073,10.585328537368774,8.571299108200073C10.585328537368774,9.683659108200073,9.683398537368774,10.585459108200073,8.571168537368774,10.585459108200073C7.458668537368775,10.585459108200073,6.557008537368774,9.683659108200073,6.557008537368774,8.571299108200073C6.557008537368774,7.458929108200073,7.458668537368775,6.557199108200074,8.571168537368774,6.557199108200074Z" fill-rule="evenodd" fill="#000000" fill-opacity="0.8999999761581421"/></g></g></svg>